<svg xmlns="http://www.w3.org/2000/svg" xmlns:xlink="http://www.w3.org/1999/xlink" width="1440" zoomAndPan="magnify" viewBox="0 0 1080 599.999999" height="800" preserveAspectRatio="xMidYMid meet" version="1.0"><path stroke-linecap="round" transform="matrix(0.706768, 0, 0, 0.706875, 134.722759, 34.935546)" fill="none" stroke-linejoin="round" d="M 75.000201 46.001882 L 75.000201 56.998788 " stroke="#ffaa2b" stroke-width="2" stroke-opacity="1" stroke-miterlimit="4"/><path stroke-linecap="round" transform="matrix(0.706768, 0, 0, 0.706875, 134.722759, 34.935546)" fill="none" stroke-linejoin="round" d="M 75.000201 46.001882 C 75.066524 45.664791 75.55842 45.001661 77.000947 45.001661 " stroke="#ffaa2b" stroke-width="2" stroke-opacity="1" stroke-miterlimit="4"/><path stroke-linecap="round" transform="matrix(0.706768, 0, 0, 0.706875, 134.722759, 34.935546)" fill="none" stroke-linejoin="round" d="M 93.00139 46.001882 C 92.935067 45.664791 92.437644 45.001661 91.000644 45.001661 " stroke="#ffaa2b" stroke-width="2" stroke-opacity="1" stroke-miterlimit="4"/><path stroke-linecap="round" transform="matrix(0.706768, 0, 0, 0.706875, 134.722759, 34.935546)" fill="none" stroke-linejoin="round" d="M 93.00139 46.001882 L 93.00139 56.998788 " stroke="#ffaa2b" stroke-width="2" stroke-opacity="1" stroke-miterlimit="4"/><path stroke-linecap="round" transform="matrix(0.706768, 0, 0, 0.706875, 134.722759, 34.935546)" fill="none" stroke-linejoin="round" d="M 75.000201 56.998788 C 76.370878 56.208558 77.918417 55.794102 79.499117 55.794102 C 81.079817 55.794102 82.632882 56.208558 83.998032 56.998788 C 85.368709 56.208558 86.921774 55.794102 88.502474 55.794102 C 90.077647 55.794102 91.630713 56.208558 93.00139 56.998788 " stroke="#ffaa2b" stroke-width="2" stroke-opacity="1" stroke-miterlimit="4"/><path stroke-linecap="round" transform="matrix(0.706768, 0, 0, 0.706875, 134.722759, 34.935546)" fill="none" stroke-linejoin="round" d="M 81.599347 48.068638 C 80.93059 47.576816 80.433167 46.886056 80.184455 46.101352 C 79.930217 45.311122 79.94127 44.471157 80.206563 43.686453 C 80.471855 42.90175 80.980332 42.222041 81.660144 41.741272 C 82.339955 41.260503 83.15794 41.000777 83.998032 41.000777 C 84.838124 41.000777 85.656109 41.260503 86.341447 41.741272 C 87.021259 42.222041 87.529736 42.90175 87.795028 43.686453 C 88.06032 44.471157 88.065847 45.311122 87.817136 46.101352 C 87.568424 46.886056 87.071001 47.576816 86.402244 48.068638 C 86.087209 48.372572 85.855078 48.748346 85.711378 49.157276 C 85.573205 49.566206 85.534517 50.002767 85.60084 50.428275 C 85.60084 50.842731 85.429505 51.246135 85.131051 51.539018 C 84.832597 51.8319 84.423605 51.997683 83.998032 51.997683 C 83.577986 51.997683 83.168994 51.8319 82.87054 51.539018 C 82.566559 51.246135 82.400751 50.842731 82.400751 50.428275 C 82.461547 50.002767 82.422859 49.566206 82.284686 49.157276 C 82.146513 48.748346 81.914382 48.372572 81.599347 48.068638 Z M 81.599347 48.068638 " stroke="#ffaa2b" stroke-width="2" stroke-opacity="1" stroke-miterlimit="4"/><path stroke-linecap="round" transform="matrix(0.706768, 0, 0, 0.706875, 134.722759, 34.935546)" fill="none" stroke-linejoin="round" d="M 82.157567 48.858867 L 85.838497 48.858867 " stroke="#ffaa2b" stroke-width="1.5" stroke-opacity="1" stroke-miterlimit="4"/><path stroke-linecap="round" transform="matrix(0.706768, 0, 0, 0.706875, 134.722759, 34.935546)" fill="none" stroke-linejoin="round" d="M 83.998032 38.000114 L 83.998032 36.999893 " stroke="#ffaa2b" stroke-width="2" stroke-opacity="1" stroke-miterlimit="4"/><path stroke-linecap="round" transform="matrix(0.706768, 0, 0, 0.706875, 134.722759, 34.935546)" fill="none" stroke-linejoin="round" d="M 79.001694 40.000556 L 78.045536 39.702147 " stroke="#ffaa2b" stroke-width="2" stroke-opacity="1" stroke-miterlimit="4"/><path stroke-linecap="round" transform="matrix(0.706768, 0, 0, 0.706875, 134.722759, 34.935546)" fill="none" stroke-linejoin="round" d="M 88.999897 40.000556 L 89.956055 39.702147 " stroke="#ffaa2b" stroke-width="2" stroke-opacity="1" stroke-miterlimit="4"/></svg>